<svg xmlns="http://www.w3.org/2000/svg" width="188" height="83" viewBox="0 0 188 83">
  <g id="Vector_Smart_Object" data-name="Vector Smart Object" transform="translate(-15.898 -36.094)">
    <path id="Path_38" data-name="Path 38" d="M47.853,76.1c.646-5.739-5.982-14.583-12.2-16.85-2.685-.977-6.057-1.439-8.263.922-1.919,2.049-.9,4.8.266,7.083.984,1.931.254,2.762-1.519,3.488a35.807,35.807,0,0,0-5.186,2.641c-3.226,1.986-5.909,5.053-4.8,8.72,4.749,15.647,31.406-3.4,31.7-6" fill="#e86b0e"/>
    <path id="Path_39" data-name="Path 39" d="M60.618,72.344c-2.827,1.837-3.546,4.29-2.3,7.452.817,2.072,8.672,19.363,19.347,11.338,5.964-4.483-.937-9.357-1.426-9.671-1.649-1.053-1.64-1.7.217-2.7C79.993,76.852,91.2,69,83.379,64.819c-5.194-2.778-19.42,5.355-22.761,7.526" fill="#fdb630"/>
    <path id="Path_40" data-name="Path 40" d="M54.364,49.8c-.856-1.925-3.129-10.137-7.261-8.926-3.6,1.054-6.241,12.835,3.817,29.345,2.166,3.556,4.979,3.328,7.232-.174,4.28-6.65,11.311-26.979,7.109-33.21-2.749-4.079-9.105,9.929-10.9,12.965" fill="#3f92b2"/>
    <path id="Path_41" data-name="Path 41" d="M45.863,99.245c-2.849,3.377-10.339,14.286-13.679,9.192C23.786,95.632,51.951,76.6,54.137,79.944c8.407,12.087,3.547,35.224-3.068,38.576-8.063,4.087-5.824-14.839-5.206-19.275" fill="#8ab71b"/>
    <g id="Group_10" data-name="Group 10">
      <path id="Path_42" data-name="Path 42" d="M71.509,100.441c2.1,0,5.521.9,5.521,3.107v1.209H75.642v-.813c0-1.375-2.393-2.126-4.092-2.126a5.789,5.789,0,0,0-5.791,6.088,6.013,6.013,0,0,0,5.854,6.316,6.753,6.753,0,0,0,4.827-2.065l.838,1.064a7.845,7.845,0,0,1-5.685,2.375,7.358,7.358,0,0,1-7.364-7.69,7.223,7.223,0,0,1,7.28-7.464" fill="#fff"/>
      <path id="Path_43" data-name="Path 43" d="M79.8,102.381a.418.418,0,0,0-.46-.459h-.883v-1.23h1.49c.9,0,1.281.375,1.281,1.271v11.695a.41.41,0,0,0,.462.458h.883v1.23H81.082c-.9,0-1.281-.375-1.281-1.271Z" fill="#fff"/>
      <path id="Path_44" data-name="Path 44" d="M84.924,106.55a.416.416,0,0,0-.46-.458h-.883v-1.23h1.49c.9,0,1.281.376,1.281,1.23v5.065c0,1.646.271,3.105,2.307,3.105,2.393,0,3.882-2.1,3.882-4.377v-5.024h1.425v8.8a.412.412,0,0,0,.466.458h.878v1.23H93.865c-.883,0-1.281-.375-1.281-1.167V113.7a6.623,6.623,0,0,1,.042-.751h-.042A4.5,4.5,0,0,1,88.47,115.6c-2.5,0-3.546-1.334-3.546-4.064Z" fill="#fff"/>
      <path id="Path_45" data-name="Path 45" d="M102.3,114.346c1.87,0,3.4-1.564,3.4-4.232,0-2.564-1.384-4.21-3.334-4.21-1.763,0-3.422,1.25-3.422,4.231,0,2.107,1.094,4.211,3.357,4.211M97.56,102.381a.418.418,0,0,0-.46-.459h-.883v-1.23h1.493c.9,0,1.278.375,1.278,1.271v3.794a8.434,8.434,0,0,1-.042.854h.042a3.825,3.825,0,0,1,3.588-2c2.833,0,4.6,2.252,4.6,5.5,0,3.316-1.995,5.483-4.762,5.483a3.85,3.85,0,0,1-3.464-2.023H98.9s.04.355.04.856v.917H97.56Z" fill="#fff"/>
      <path id="Path_46" data-name="Path 46" d="M108.627,113.033h.651a.429.429,0,0,0,.463-.458l.962-12.029h2.855l3.063,7.045c.356.854.734,1.981.734,1.981h.042s.378-1.127.737-1.981l3.061-7.045h2.855l.964,12.029a.426.426,0,0,0,.461.458h.651v2.314h-2.37c-.987,0-1.323-.417-1.4-1.418l-.505-6.587a21.013,21.013,0,0,1-.022-2.293h-.04s-.443,1.459-.821,2.293l-2.475,5.461h-2.225l-2.475-5.461a23.719,23.719,0,0,1-.819-2.314h-.042a21.515,21.515,0,0,1-.022,2.314l-.483,6.587c-.082,1-.44,1.418-1.425,1.418h-2.372Z" fill="#fff"/>
      <path id="Path_47" data-name="Path 47" d="M131.7,113.533a2.738,2.738,0,0,0,2.435-2.793v-.25h-.462c-1.383,0-3.587.188-3.587,1.667a1.424,1.424,0,0,0,1.615,1.376m2.057-4.857h.336v-.084c0-1.521-.607-2.085-1.971-2.085-.481,0-1.426.125-1.426.709v.562h-2.477v-1.125c0-1.981,2.812-2.19,3.924-2.19,3.566,0,4.616,1.856,4.616,4.233v3.961a.417.417,0,0,0,.46.458h.84v2.229h-2.392c-.986,0-1.363-.54-1.363-1.166,0-.271.02-.458.02-.458h-.042a3.482,3.482,0,0,1-3.231,1.875,3.371,3.371,0,0,1-3.651-3.315c0-3.335,4.616-3.6,6.357-3.6" fill="#fff"/>
      <path id="Path_48" data-name="Path 48" d="M139.925,103.255a.409.409,0,0,0-.46-.458h-.841v-2.251h2.539c.984,0,1.427.438,1.427,1.4v3.732a8.974,8.974,0,0,1-.042.9h.042a4.082,4.082,0,0,1,3.67-2.107c2.393,0,3.736,1.231,3.736,4.046v4.147a.418.418,0,0,0,.46.459h.84v2.23H148.76c-.989,0-1.408-.417-1.408-1.417v-4.878c0-1.293-.358-2.168-1.7-2.168a3.008,3.008,0,0,0-2.895,2.209,4.747,4.747,0,0,0-.166,1.375v4.878h-2.666Z" fill="#fff"/>
      <path id="Path_49" data-name="Path 49" d="M153.651,100.546h2.308v2.438h-2.308Zm-.126,6.88a.408.408,0,0,0-.46-.459h-.841v-2.25h2.54c.987,0,1.4.436,1.4,1.417v6.524a.419.419,0,0,0,.464.458h.839v2.231h-2.54c-.987,0-1.407-.417-1.407-1.418Z" fill="#fff"/>
      <path id="Path_50" data-name="Path 50" d="M159.719,107.426a.409.409,0,0,0-.462-.459h-.839v-2.25h2.456c.943,0,1.4.436,1.4,1.187v.313a2.929,2.929,0,0,1-.042.458h.042a4.118,4.118,0,0,1,3.777-2.21c2.372,0,3.736,1.231,3.736,4.044v4.148a.416.416,0,0,0,.46.458h.84v2.231h-2.539c-1.007,0-1.427-.417-1.427-1.418v-4.878c0-1.291-.336-2.167-1.679-2.167a2.929,2.929,0,0,0-2.874,2.167,4.448,4.448,0,0,0-.209,1.417v4.879h-2.643Z" fill="#fff"/>
      <path id="Path_51" data-name="Path 51" d="M180.18,110.01c0-1.647-.861-3.272-2.643-3.272-1.467,0-2.683,1.189-2.683,3.293,0,2.022,1.066,3.335,2.641,3.335,1.387,0,2.685-1,2.685-3.356m-3.168-5.545c2.33,0,3.086,1.293,3.086,1.293h.04s-.018-.272-.018-.625v-1.876a.412.412,0,0,0-.464-.46h-.838v-2.25h2.538c.988,0,1.428.438,1.428,1.417v10.695a.418.418,0,0,0,.463.458h.815v2.231h-2.454c-.965,0-1.323-.458-1.323-1.085v-.4h-.04a3.682,3.682,0,0,1-3.338,1.73c-2.895,0-4.761-2.272-4.761-5.565,0-3.377,2.034-5.566,4.866-5.566" fill="#fff"/>
      <path id="Path_52" data-name="Path 52" d="M186.272,107.426a.409.409,0,0,0-.462-.459h-.839v-2.25H187.4c.944,0,1.427.394,1.427,1.291v.625a4.777,4.777,0,0,1-.042.668h.042a3.677,3.677,0,0,1,3.4-2.73,3.5,3.5,0,0,1,.483.041v2.605a4.793,4.793,0,0,0-.651-.042,3.014,3.014,0,0,0-2.918,2.231,6.475,6.475,0,0,0-.229,1.73v4.211h-2.643Z" fill="#fff"/>
      <path id="Path_53" data-name="Path 53" d="M197.539,113.533a2.738,2.738,0,0,0,2.435-2.793v-.25h-.46c-1.385,0-3.589.188-3.589,1.667a1.423,1.423,0,0,0,1.614,1.376m2.057-4.857h.336v-.084c0-1.521-.607-2.085-1.97-2.085-.482,0-1.427.125-1.427.709v.562h-2.477v-1.125c0-1.981,2.811-2.19,3.924-2.19,3.566,0,4.616,1.856,4.616,4.233v3.961a.417.417,0,0,0,.46.458h.84v2.229h-2.389c-.989,0-1.366-.54-1.366-1.166,0-.271.02-.458.02-.458h-.042a3.483,3.483,0,0,1-3.231,1.875,3.371,3.371,0,0,1-3.651-3.315c0-3.335,4.616-3.6,6.356-3.6" fill="#fff"/>
    </g>
  </g>
</svg>
